<svg id="visual" viewBox="0 0 900 600" width="900" height="600" xmlns="http://www.w3.org/2000/svg" xmlns:xlink="http://www.w3.org/1999/xlink" version="1.1"><path d="M0 206L21.5 206.5C43 207 86 208 128.8 200.2C171.7 192.3 214.3 175.7 257.2 168.3C300 161 343 163 385.8 169.8C428.7 176.7 471.3 188.3 514.2 189.8C557 191.3 600 182.7 642.8 185C685.7 187.3 728.3 200.7 771.2 198.7C814 196.7 857 179.3 878.5 170.7L900 162L900 0L878.5 0C857 0 814 0 771.2 0C728.3 0 685.7 0 642.8 0C600 0 557 0 514.2 0C471.3 0 428.7 0 385.8 0C343 0 300 0 257.2 0C214.3 0 171.7 0 128.8 0C86 0 43 0 21.5 0L0 0Z" fill="#f5aa39"></path><path d="M0 196L21.5 195.3C43 194.7 86 193.3 128.8 182.2C171.7 171 214.3 150 257.2 144.2C300 138.3 343 147.7 385.8 157.5C428.7 167.3 471.3 177.7 514.2 182.3C557 187 600 186 642.8 176.3C685.7 166.7 728.3 148.3 771.2 146C814 143.7 857 157.3 878.5 164.2L900 171L900 0L878.5 0C857 0 814 0 771.2 0C728.3 0 685.7 0 642.8 0C600 0 557 0 514.2 0C471.3 0 428.7 0 385.8 0C343 0 300 0 257.2 0C214.3 0 171.7 0 128.8 0C86 0 43 0 21.5 0L0 0Z" fill="#ff9152"></path><path d="M0 97L21.5 99.8C43 102.7 86 108.3 128.8 110.3C171.7 112.3 214.3 110.7 257.2 115.5C300 120.3 343 131.7 385.8 129.2C428.7 126.7 471.3 110.3 514.2 102.2C557 94 600 94 642.8 93.7C685.7 93.3 728.3 92.7 771.2 97C814 101.3 857 110.7 878.5 115.3L900 120L900 0L878.5 0C857 0 814 0 771.2 0C728.3 0 685.7 0 642.8 0C600 0 557 0 514.2 0C471.3 0 428.7 0 385.8 0C343 0 300 0 257.2 0C214.3 0 171.7 0 128.8 0C86 0 43 0 21.5 0L0 0Z" fill="#ff7c6e"></path><path d="M0 109L21.5 109.3C43 109.7 86 110.3 128.8 108C171.7 105.7 214.3 100.3 257.2 96.5C300 92.7 343 90.3 385.8 86.7C428.7 83 471.3 78 514.2 76C557 74 600 75 642.8 76.2C685.7 77.3 728.3 78.7 771.2 75.8C814 73 857 66 878.5 62.5L900 59L900 0L878.5 0C857 0 814 0 771.2 0C728.3 0 685.7 0 642.8 0C600 0 557 0 514.2 0C471.3 0 428.7 0 385.8 0C343 0 300 0 257.2 0C214.3 0 171.7 0 128.8 0C86 0 43 0 21.5 0L0 0Z" fill="#ff6e8e"></path><path d="M0 43L21.5 45.7C43 48.3 86 53.7 128.8 56.5C171.7 59.3 214.3 59.7 257.2 55C300 50.3 343 40.7 385.8 35.8C428.7 31 471.3 31 514.2 37.5C557 44 600 57 642.8 57.2C685.7 57.3 728.3 44.7 771.2 37.7C814 30.7 857 29.3 878.5 28.7L900 28L900 0L878.5 0C857 0 814 0 771.2 0C728.3 0 685.7 0 642.8 0C600 0 557 0 514.2 0C471.3 0 428.7 0 385.8 0C343 0 300 0 257.2 0C214.3 0 171.7 0 128.8 0C86 0 43 0 21.5 0L0 0Z" fill="#ff69b4"></path></svg>